<svg xmlns="http://www.w3.org/2000/svg" width="252.112" height="49.219" viewBox="0 0 252.112 49.219">
  <g id="Group_203" data-name="Group 203" transform="translate(-1246.944 -5034.531)">
    <g id="Group_26" data-name="Group 26" transform="translate(751.636 4739.668)">
      <path id="Path_38" data-name="Path 38" d="M496.364,305.33c15.564,12.958,34.433,12.958,50,0h0c15.564-12.955,34.429-12.955,50,0l0,0c15.565,12.955,34.429,12.955,50,0l0,0c15.565-12.955,34.429-12.955,49.994,0l.01.01c15.565,12.952,34.429,12.952,49.994,0" fill="none" stroke="#fff" stroke-linecap="round" stroke-linejoin="round" stroke-width="1.5"/>
    </g>
    <g id="Group_27" data-name="Group 27" transform="translate(751.636 4767.95)">
      <path id="Path_38-2" data-name="Path 38" d="M496.364,305.33c15.564,12.958,34.433,12.958,50,0h0c15.564-12.955,34.429-12.955,50,0l0,0c15.565,12.955,34.429,12.955,50,0l0,0c15.565-12.955,34.429-12.955,49.994,0l.01.01c15.565,12.952,34.429,12.952,49.994,0" fill="none" stroke="#fff" stroke-linecap="round" stroke-linejoin="round" stroke-width="1.5"/>
    </g>
  </g>
</svg>
