<svg xmlns="http://www.w3.org/2000/svg" width="100.998" height="105.028" viewBox="0 0 100.998 105.028">
  <g id="swirly-scribbled-arrow" transform="matrix(0.914, 0.407, -0.407, 0.914, 17.08, -7.245)" opacity="0.52">
    <path id="Path_1" data-name="Path 1" d="M89.2.208c-3.006,1.366-5.874,2.869-8.743,4.508-2.6,1.366-5.738,2.732-7.924,4.782a1.721,1.721,0,0,0,1.639,2.869.134.134,0,0,0,.137-.137,6.833,6.833,0,0,1,1.093.956c0,.137.136.41.136.546a3.618,3.618,0,0,0,.683.82c-3.962,7.377-7.65,14.754-12.3,21.585a37.142,37.142,0,0,1-4.645,5.738C54.906,34.908,47.8,26.848,39.195,28.351,27.856,30.4,34,42.558,39.878,46.657c6.967,5.055,12.978,4.782,18.989,0,2.732,4.645,4.645,9.836,4.372,14.891C62.829,73.707,51.9,75.756,42.747,72.614a19.753,19.753,0,0,0,.956-11.2c-1.366-6.421-11.2-12.159-16.94-7.65-5.6,4.508,4.918,15.984,8.333,18.307a24.057,24.057,0,0,0,3.142,1.912c-.137.137-.137.273-.273.41-6.284,9.836-14.618,1.366-18.443-5.6-.546-1.093-2.049-.137-1.639.956,3.142,7.241,9.563,15.711,18.17,10.793a14.184,14.184,0,0,0,5.055-5.191c7.514,3.006,16.257,3.006,21.722-3.825,6.557-8.2,2.459-18.853-1.912-26.776l.273-.273c7.787-7.514,12.569-18.17,17.487-27.733.956.683,2.049,1.366,3.006,2.049a1.856,1.856,0,0,0,2.186-.273A33.521,33.521,0,0,0,91.791,2.12C92.2.618,90.7-.475,89.2.208ZM53.676,46.384c-5.191,3.006-10.383-.683-14.208-4.235-5.055-4.645-3.689-12.159,4.1-10.656,3.962.82,7.1,4.372,9.7,7.241a39.826,39.826,0,0,1,3.962,5.191A20.6,20.6,0,0,1,53.676,46.384ZM39.741,71.247h0a22.217,22.217,0,0,1-8.607-8.06,15.934,15.934,0,0,1-2.186-4.918c-1.366-4.645,6.011-2.322,7.924-1.366C42.064,59.772,41.654,66.33,39.741,71.247ZM82.228,14.962c-.137,0-.137-.137-.273-.137a1.281,1.281,0,0,0-.82-1.093,28.936,28.936,0,0,1-2.869-1.5c-.41-.273-1.23-1.093-1.23-.82a.294.294,0,0,0-.273-.273c1.5-.82,3.006-1.913,4.508-2.732,1.913-1.093,3.962-2.186,6.011-3.279A29.311,29.311,0,0,1,82.228,14.962Z" transform="translate(0)" fill="#ffc089"/>
  </g>
</svg>
