<svg xmlns="http://www.w3.org/2000/svg" width="187.166" height="43.96" viewBox="0 0 187.166 43.96">
  <g id="Group_25" data-name="Group 25" transform="translate(-283.685 -377.935)">
    <rect id="Rectangle_8" data-name="Rectangle 8" width="3.358" height="3.358" transform="translate(283.685 377.935)" fill="#fff"/>
    <rect id="Rectangle_9" data-name="Rectangle 9" width="3.358" height="3.358" transform="translate(283.685 398.236)" fill="#fff"/>
    <rect id="Rectangle_10" data-name="Rectangle 10" width="3.358" height="3.358" transform="translate(283.685 418.537)" fill="#fff"/>
    <rect id="Rectangle_11" data-name="Rectangle 11" width="3.358" height="3.358" transform="translate(302.065 377.935)" fill="#fff"/>
    <rect id="Rectangle_12" data-name="Rectangle 12" width="3.358" height="3.358" transform="translate(302.065 398.236)" fill="#fff"/>
    <rect id="Rectangle_13" data-name="Rectangle 13" width="3.358" height="3.358" transform="translate(302.065 418.537)" fill="#fff"/>
    <rect id="Rectangle_14" data-name="Rectangle 14" width="3.358" height="3.358" transform="translate(320.446 377.935)" fill="#fff"/>
    <rect id="Rectangle_15" data-name="Rectangle 15" width="3.358" height="3.358" transform="translate(320.446 398.236)" fill="#fff"/>
    <rect id="Rectangle_16" data-name="Rectangle 16" width="3.358" height="3.358" transform="translate(320.446 418.537)" fill="#fff"/>
    <rect id="Rectangle_17" data-name="Rectangle 17" width="3.358" height="3.358" transform="translate(338.827 377.935)" fill="#fff"/>
    <rect id="Rectangle_18" data-name="Rectangle 18" width="3.358" height="3.358" transform="translate(338.827 398.236)" fill="#fff"/>
    <rect id="Rectangle_19" data-name="Rectangle 19" width="3.358" height="3.358" transform="translate(338.827 418.537)" fill="#fff"/>
    <rect id="Rectangle_20" data-name="Rectangle 20" width="3.358" height="3.358" transform="translate(357.208 377.935)" fill="#fff"/>
    <rect id="Rectangle_21" data-name="Rectangle 21" width="3.358" height="3.358" transform="translate(357.208 398.236)" fill="#fff"/>
    <rect id="Rectangle_22" data-name="Rectangle 22" width="3.358" height="3.358" transform="translate(357.208 418.537)" fill="#fff"/>
    <rect id="Rectangle_23" data-name="Rectangle 23" width="3.358" height="3.358" transform="translate(375.589 377.935)" fill="#fff"/>
    <rect id="Rectangle_24" data-name="Rectangle 24" width="3.358" height="3.358" transform="translate(375.589 398.236)" fill="#fff"/>
    <rect id="Rectangle_25" data-name="Rectangle 25" width="3.358" height="3.358" transform="translate(375.589 418.537)" fill="#fff"/>
    <rect id="Rectangle_26" data-name="Rectangle 26" width="3.358" height="3.358" transform="translate(393.97 377.935)" fill="#fff"/>
    <rect id="Rectangle_27" data-name="Rectangle 27" width="3.358" height="3.358" transform="translate(393.97 398.236)" fill="#fff"/>
    <rect id="Rectangle_28" data-name="Rectangle 28" width="3.358" height="3.358" transform="translate(393.97 418.537)" fill="#fff"/>
    <rect id="Rectangle_29" data-name="Rectangle 29" width="3.358" height="3.358" transform="translate(412.35 377.935)" fill="#fff"/>
    <rect id="Rectangle_30" data-name="Rectangle 30" width="3.358" height="3.358" transform="translate(412.35 398.236)" fill="#fff"/>
    <rect id="Rectangle_31" data-name="Rectangle 31" width="3.358" height="3.358" transform="translate(412.35 418.537)" fill="#fff"/>
    <rect id="Rectangle_32" data-name="Rectangle 32" width="3.358" height="3.358" transform="translate(430.731 377.935)" fill="#fff"/>
    <rect id="Rectangle_33" data-name="Rectangle 33" width="3.358" height="3.358" transform="translate(430.731 398.236)" fill="#fff"/>
    <rect id="Rectangle_34" data-name="Rectangle 34" width="3.358" height="3.358" transform="translate(430.731 418.537)" fill="#fff"/>
    <rect id="Rectangle_35" data-name="Rectangle 35" width="3.358" height="3.358" transform="translate(449.112 377.935)" fill="#fff"/>
    <rect id="Rectangle_36" data-name="Rectangle 36" width="3.358" height="3.358" transform="translate(449.112 398.236)" fill="#fff"/>
    <rect id="Rectangle_37" data-name="Rectangle 37" width="3.358" height="3.358" transform="translate(449.112 418.537)" fill="#fff"/>
    <rect id="Rectangle_38" data-name="Rectangle 38" width="3.358" height="3.358" transform="translate(467.493 377.935)" fill="#fff"/>
    <rect id="Rectangle_39" data-name="Rectangle 39" width="3.358" height="3.358" transform="translate(467.493 398.236)" fill="#fff"/>
    <rect id="Rectangle_40" data-name="Rectangle 40" width="3.358" height="3.358" transform="translate(467.493 418.537)" fill="#fff"/>
  </g>
</svg>
